<svg id="visual" viewBox="0 0 900 600" width="900" height="600" xmlns="http://www.w3.org/2000/svg" xmlns:xlink="http://www.w3.org/1999/xlink" version="1.1"><rect width="900" height="600" fill="#371447"></rect><g><g transform="translate(483 305)"><path d="M106.3 -52.1C113.4 -12.9 77.8 22.6 41 47.2C4.2 71.7 -33.8 85.3 -59.7 69.5C-85.6 53.7 -99.4 8.4 -87.5 -37.6C-75.5 -83.6 -37.7 -130.5 5.9 -132.4C49.6 -134.4 99.3 -91.4 106.3 -52.1Z" fill="#5c225d"></path></g><g transform="translate(4 50)"><path d="M46 -17.2C54 9.4 50.7 37.4 31 54.4C11.3 71.5 -24.8 77.7 -43.5 63.4C-62.1 49 -63.3 14 -53.1 -15.7C-43 -45.3 -21.5 -69.7 -1.2 -69.3C19.1 -68.9 38.1 -43.8 46 -17.2Z" fill="#5c225d"></path></g><g transform="translate(90 580)"><path d="M59.5 -18.8C66.9 3.2 55.4 31.9 31.5 51.1C7.6 70.3 -28.8 80 -51.1 65C-73.5 50.1 -81.8 10.4 -70.9 -16.5C-60.1 -43.4 -30 -57.4 -2 -56.8C26.1 -56.2 52.2 -40.8 59.5 -18.8Z" fill="#5c225d"></path></g><g transform="translate(895 97)"><path d="M93.6 -34.8C103.7 0.8 82.3 42.2 50.7 63.7C19.2 85.1 -22.4 86.6 -42.3 69.5C-62.3 52.3 -60.6 16.6 -49.9 -19.7C-39.2 -56 -19.6 -93 11.1 -96.6C41.7 -100.1 83.5 -70.4 93.6 -34.8Z" fill="#5c225d"></path></g></g></svg>