<svg id="visual" viewBox="0 0 900 600" width="900" height="600" xmlns="http://www.w3.org/2000/svg" xmlns:xlink="http://www.w3.org/1999/xlink" version="1.1"><rect width="900" height="600" fill="#5c225d"></rect><g><g transform="translate(545 154)"><path d="M64 -28.1C73 7.1 63.6 40.9 41.7 56.7C19.7 72.5 -15 70.4 -45.1 51.1C-75.2 31.8 -100.9 -4.7 -92.6 -38.8C-84.4 -72.9 -42.2 -104.7 -7.4 -102.3C27.5 -99.9 54.9 -63.3 64 -28.1Z" fill="#371447"></path></g><g transform="translate(166 383)"><path d="M54.8 -19.2C62.7 6.4 55 35.7 35.5 50.3C15.9 64.8 -15.4 64.6 -32 50.9C-48.6 37.2 -50.6 10.1 -42.8 -15.5C-35 -41 -17.5 -64.9 3 -65.9C23.5 -66.9 46.9 -44.9 54.8 -19.2Z" fill="#371447"></path></g><g transform="translate(823 330)"><path d="M79.3 -24.8C86.7 -2.9 65.6 29.2 38.9 47.1C12.1 65.1 -20.3 68.8 -43.6 53.4C-66.9 38.1 -81 3.6 -72.2 -20.2C-63.4 -44 -31.7 -57.1 2.1 -57.7C35.9 -58.4 71.8 -46.7 79.3 -24.8Z" fill="#371447"></path></g><g transform="translate(148 64)"><path d="M48.3 -10.7C57.8 13.5 57.4 46 40.5 59.1C23.6 72.1 -9.8 65.8 -31.9 48.6C-54.1 31.4 -64.9 3.4 -57.7 -17.7C-50.5 -38.8 -25.3 -52.9 -2.9 -51.9C19.4 -51 38.8 -34.9 48.3 -10.7Z" fill="#371447"></path></g><g transform="translate(643 548)"><path d="M46 -17.2C53.2 7.3 48.3 33.5 32.2 45.5C16.1 57.5 -11.2 55.2 -31.9 40.9C-52.6 26.6 -66.6 0.2 -60.2 -23.2C-53.8 -46.6 -26.9 -67 -3.8 -65.8C19.4 -64.5 38.7 -41.7 46 -17.2Z" fill="#371447"></path></g><g transform="translate(834 20)"><path d="M41.7 -15.5C48.7 8 45.4 33 31.5 43C17.6 52.9 -6.8 48 -29.2 33.4C-51.5 18.7 -71.8 -5.6 -66.6 -26.6C-61.4 -47.6 -30.7 -65.4 -6.7 -63.2C17.4 -61 34.7 -39 41.7 -15.5Z" fill="#371447"></path></g></g></svg>