<svg id="visual" viewBox="0 0 900 600" width="900" height="600" xmlns="http://www.w3.org/2000/svg" xmlns:xlink="http://www.w3.org/1999/xlink" version="1.1"><rect width="900" height="600" fill="#371447"></rect><g><g transform="translate(484 526)"><path d="M118 -27.4C133.5 9.5 113.3 68.8 73.8 96.3C34.2 123.8 -24.7 119.5 -61.5 91.2C-98.3 62.9 -112.9 10.7 -99 -24C-85.1 -58.6 -42.5 -75.8 4.3 -77.2C51.2 -78.6 102.4 -64.3 118 -27.4Z" fill="none" stroke="#5c225d" stroke-width="20"></path></g><g transform="translate(6 216)"><path d="M63.8 -20.5C73.9 10.3 67.2 46.7 43.1 65.7C19 84.8 -22.5 86.4 -50.3 66.8C-78 47.2 -92.1 6.3 -81.5 -25.3C-70.8 -56.8 -35.4 -79.2 -4.3 -77.8C26.9 -76.4 53.8 -51.3 63.8 -20.5Z" fill="none" stroke="#5c225d" stroke-width="20"></path></g><g transform="translate(483 8)"><path d="M93.7 -28C103.7 0.4 81.9 41.6 50.1 63.4C18.3 85.2 -23.6 87.7 -51.8 68C-80.1 48.2 -94.7 6.4 -83.8 -23.3C-72.9 -52.9 -36.4 -70.4 2.7 -71.2C41.8 -72.1 83.6 -56.4 93.7 -28Z" fill="none" stroke="#5c225d" stroke-width="20"></path></g><g transform="translate(874 43)"><path d="M47.3 -19.8C57 14.4 57.6 47.2 42.7 57.8C27.9 68.3 -2.4 56.6 -33 36.5C-63.7 16.3 -94.7 -12.3 -89.3 -40.7C-83.8 -69.1 -41.9 -97.3 -11.6 -93.5C18.8 -89.8 37.6 -54.1 47.3 -19.8Z" fill="none" stroke="#5c225d" stroke-width="20"></path></g></g></svg>