<svg id="visual" viewBox="0 0 900 600" width="900" height="600" xmlns="http://www.w3.org/2000/svg" xmlns:xlink="http://www.w3.org/1999/xlink" version="1.1"><rect width="900" height="600" fill="#371447"></rect><g><g transform="translate(572 223)"><path d="M131.4 -43.5C150.8 17.3 133.9 89.1 86.9 124.4C39.9 159.7 -37.1 158.4 -88.3 121.3C-139.5 84.2 -164.9 11.2 -145.9 -48.9C-126.8 -109.1 -63.4 -156.3 -3.7 -155.1C55.9 -153.9 111.9 -104.2 131.4 -43.5Z" fill="#5c225d"></path></g><g transform="translate(135 439)"><path d="M75.2 -23C86 8.8 75.4 48.9 48.9 68.5C22.4 88 -19.9 86.9 -49.8 65.8C-79.7 44.8 -97.1 3.8 -86.7 -27.4C-76.4 -58.6 -38.2 -80.1 -3 -79.1C32.2 -78.1 64.5 -54.8 75.2 -23Z" fill="#5c225d"></path></g><g transform="translate(20 12)"><path d="M148.9 -50.5C167.8 9.9 140.7 83.1 91.2 117.1C41.7 151.1 -30.2 145.8 -75.6 111.2C-121 76.5 -139.9 12.5 -122.8 -45.3C-105.8 -103.1 -52.9 -154.7 6 -156.6C65 -158.6 130 -111 148.9 -50.5Z" fill="#5c225d"></path></g><g transform="translate(854 551)"><path d="M108.6 -34.5C124.8 14.8 111.2 74.5 73.5 102.1C35.9 129.6 -25.8 125 -65.1 95.1C-104.4 65.3 -121.3 10.2 -106.8 -36.8C-92.2 -83.7 -46.1 -122.4 0 -122.4C46.1 -122.5 92.3 -83.7 108.6 -34.5Z" fill="#5c225d"></path></g></g></svg>