<svg id="visual" viewBox="0 0 900 600" width="900" height="600" xmlns="http://www.w3.org/2000/svg" xmlns:xlink="http://www.w3.org/1999/xlink" version="1.1"><rect width="900" height="600" fill="#5c225d"></rect><g><g transform="translate(205 420)"><path d="M93.3 -15.8C110.8 23.7 108 84.3 75.3 109.4C42.6 134.6 -20.1 124.3 -57.5 93.7C-94.9 63.1 -106.9 12.3 -93.1 -22C-79.2 -56.3 -39.6 -74.1 -0.9 -73.8C37.9 -73.5 75.8 -55.2 93.3 -15.8Z" fill="#371447"></path></g><g transform="translate(626 595)"><path d="M73.5 -30C79.7 -4.7 58.6 23.5 32.1 42.3C5.6 61.1 -26.4 70.7 -46.7 57.5C-67.1 44.3 -75.9 8.4 -66.1 -21.7C-56.4 -51.9 -28.2 -76.3 2.7 -77.1C33.6 -78 67.3 -55.4 73.5 -30Z" fill="#371447"></path></g><g transform="translate(801 80)"><path d="M92.8 -30.1C105.5 9.2 91.1 57.4 61.8 76.7C32.4 96.1 -11.8 86.6 -36.2 65.3C-60.5 44 -64.9 10.7 -55.5 -23.9C-46.2 -58.5 -23.1 -94.5 8.4 -97.2C40 -100 80 -69.5 92.8 -30.1Z" fill="#371447"></path></g><g transform="translate(55 31)"><path d="M75.3 -22.3C84.8 4.7 70.8 41.5 47.4 56.3C24 71.2 -8.8 64.2 -32.8 46.5C-56.8 28.7 -71.9 0.2 -65 -23.2C-58.1 -46.7 -29 -65 1.9 -65.7C32.9 -66.3 65.8 -49.2 75.3 -22.3Z" fill="#371447"></path></g></g></svg>