<svg id="visual" viewBox="0 0 900 600" width="900" height="600" xmlns="http://www.w3.org/2000/svg" xmlns:xlink="http://www.w3.org/1999/xlink" version="1.1"><rect x="0" y="0" width="900" height="600" fill="#5c225d"></rect><defs><linearGradient id="grad1_0" x1="33.3%" y1="100%" x2="100%" y2="0%"><stop offset="20%" stop-color="#5c225d" stop-opacity="1"></stop><stop offset="80%" stop-color="#5c225d" stop-opacity="1"></stop></linearGradient></defs><defs><linearGradient id="grad2_0" x1="0%" y1="100%" x2="66.7%" y2="0%"><stop offset="20%" stop-color="#5c225d" stop-opacity="1"></stop><stop offset="80%" stop-color="#5c225d" stop-opacity="1"></stop></linearGradient></defs><g transform="translate(900, 600)"><path d="M-216.3 0C-212.8 -27.5 -209.3 -55 -199.9 -82.8C-190.5 -110.6 -175.2 -138.8 -152 -152C-128.9 -165.3 -97.8 -163.6 -71.2 -171.8C-44.5 -180.1 -22.3 -198.2 0 -216.3L0 0Z" fill="#ce477e"></path></g><g transform="translate(0, 0)"><path d="M216.3 0C217.2 32.2 218.2 64.4 199.9 82.8C181.6 101.1 144.1 105.6 122.3 122.3C100.6 139 94.7 168 76.9 185.7C59.2 203.4 29.6 209.9 0 216.3L0 0Z" fill="#ce477e"></path></g></svg>