<svg id="visual" viewBox="0 0 900 600" width="900" height="600" xmlns="http://www.w3.org/2000/svg" xmlns:xlink="http://www.w3.org/1999/xlink" version="1.1"><rect x="0" y="0" width="900" height="600" fill="#371447"></rect><path d="M0 496L16.7 492.8C33.3 489.7 66.7 483.3 100 487.2C133.3 491 166.7 505 200 511.7C233.3 518.3 266.7 517.7 300 516.3C333.3 515 366.7 513 400 500C433.3 487 466.7 463 500 456C533.3 449 566.7 459 600 463.3C633.3 467.7 666.7 466.3 700 474C733.3 481.7 766.7 498.3 800 505.3C833.3 512.3 866.7 509.7 883.3 508.3L900 507L900 601L883.3 601C866.7 601 833.3 601 800 601C766.7 601 733.3 601 700 601C666.7 601 633.3 601 600 601C566.7 601 533.3 601 500 601C466.7 601 433.3 601 400 601C366.7 601 333.3 601 300 601C266.7 601 233.3 601 200 601C166.7 601 133.3 601 100 601C66.7 601 33.3 601 16.7 601L0 601Z" fill="#ce477e"></path><path d="M0 484L16.7 485C33.3 486 66.7 488 100 493C133.3 498 166.7 506 200 513.5C233.3 521 266.7 528 300 519.8C333.3 511.7 366.7 488.3 400 489.5C433.3 490.7 466.7 516.3 500 524.8C533.3 533.3 566.7 524.7 600 523.3C633.3 522 666.7 528 700 522.7C733.3 517.3 766.7 500.7 800 488.3C833.3 476 866.7 468 883.3 464L900 460L900 601L883.3 601C866.7 601 833.3 601 800 601C766.7 601 733.3 601 700 601C666.7 601 633.3 601 600 601C566.7 601 533.3 601 500 601C466.7 601 433.3 601 400 601C366.7 601 333.3 601 300 601C266.7 601 233.3 601 200 601C166.7 601 133.3 601 100 601C66.7 601 33.3 601 16.7 601L0 601Z" fill="#b13c79"></path><path d="M0 516L16.7 514C33.3 512 66.7 508 100 515.3C133.3 522.7 166.7 541.3 200 551.2C233.3 561 266.7 562 300 552.3C333.3 542.7 366.7 522.3 400 512.2C433.3 502 466.7 502 500 501.8C533.3 501.7 566.7 501.3 600 510.7C633.3 520 666.7 539 700 536.7C733.3 534.3 766.7 510.7 800 501.8C833.3 493 866.7 499 883.3 502L900 505L900 601L883.3 601C866.7 601 833.3 601 800 601C766.7 601 733.3 601 700 601C666.7 601 633.3 601 600 601C566.7 601 533.3 601 500 601C466.7 601 433.3 601 400 601C366.7 601 333.3 601 300 601C266.7 601 233.3 601 200 601C166.7 601 133.3 601 100 601C66.7 601 33.3 601 16.7 601L0 601Z" fill="#943372"></path><path d="M0 568L16.7 566.3C33.3 564.7 66.7 561.3 100 559.8C133.3 558.3 166.7 558.7 200 552.8C233.3 547 266.7 535 300 531.8C333.3 528.7 366.7 534.3 400 538.2C433.3 542 466.7 544 500 550C533.3 556 566.7 566 600 567.3C633.3 568.7 666.7 561.3 700 556.7C733.3 552 766.7 550 800 549C833.3 548 866.7 548 883.3 548L900 548L900 601L883.3 601C866.7 601 833.3 601 800 601C766.7 601 733.3 601 700 601C666.7 601 633.3 601 600 601C566.7 601 533.3 601 500 601C466.7 601 433.3 601 400 601C366.7 601 333.3 601 300 601C266.7 601 233.3 601 200 601C166.7 601 133.3 601 100 601C66.7 601 33.3 601 16.7 601L0 601Z" fill="#782a68"></path><path d="M0 585L16.7 578C33.3 571 66.7 557 100 553C133.3 549 166.7 555 200 560.8C233.3 566.7 266.7 572.3 300 569.5C333.3 566.7 366.7 555.3 400 553.7C433.3 552 466.7 560 500 568.2C533.3 576.3 566.7 584.7 600 584.3C633.3 584 666.7 575 700 566.7C733.3 558.3 766.7 550.7 800 554.8C833.3 559 866.7 575 883.3 583L900 591L900 601L883.3 601C866.7 601 833.3 601 800 601C766.7 601 733.3 601 700 601C666.7 601 633.3 601 600 601C566.7 601 533.3 601 500 601C466.7 601 433.3 601 400 601C366.7 601 333.3 601 300 601C266.7 601 233.3 601 200 601C166.7 601 133.3 601 100 601C66.7 601 33.3 601 16.7 601L0 601Z" fill="#5c225d"></path></svg>