<svg id="visual" viewBox="0 0 900 600" width="900" height="600" xmlns="http://www.w3.org/2000/svg" xmlns:xlink="http://www.w3.org/1999/xlink" version="1.1"><g stroke-width="1" stroke-linejoin="bevel"><path d="M338 261L498 161L368 122Z" fill="#58215b" stroke="#58215b"></path><path d="M338 261L577 324L498 161Z" fill="#42184e" stroke="#42184e"></path><path d="M542 0L336 0L368 122Z" fill="#371447" stroke="#371447"></path><path d="M368 122L157 174L338 261Z" fill="#58215b" stroke="#58215b"></path><path d="M683 109L542 0L498 161Z" fill="#58215b" stroke="#58215b"></path><path d="M498 161L542 0L368 122Z" fill="#541f59" stroke="#541f59"></path><path d="M181 0L157 174L368 122Z" fill="#4d1c54" stroke="#4d1c54"></path><path d="M157 174L178 324L338 261Z" fill="#451a50" stroke="#451a50"></path><path d="M338 261L398 473L577 324Z" fill="#451a50" stroke="#451a50"></path><path d="M178 324L398 473L338 261Z" fill="#3b1549" stroke="#3b1549"></path><path d="M743 482L692 262L577 324Z" fill="#491b52" stroke="#491b52"></path><path d="M577 324L692 262L498 161Z" fill="#42184e" stroke="#42184e"></path><path d="M692 262L683 109L498 161Z" fill="#491b52" stroke="#491b52"></path><path d="M398 473L570 470L577 324Z" fill="#58215b" stroke="#58215b"></path><path d="M336 0L181 0L368 122Z" fill="#3e174b" stroke="#3e174b"></path><path d="M900 0L711 0L683 109Z" fill="#58215b" stroke="#58215b"></path><path d="M683 109L711 0L542 0Z" fill="#451a50" stroke="#451a50"></path><path d="M0 412L180 485L178 324Z" fill="#4d1c54" stroke="#4d1c54"></path><path d="M178 324L180 485L398 473Z" fill="#4d1c54" stroke="#4d1c54"></path><path d="M398 473L534 600L570 470Z" fill="#3b1549" stroke="#3b1549"></path><path d="M180 485L351 600L398 473Z" fill="#3b1549" stroke="#3b1549"></path><path d="M351 600L534 600L398 473Z" fill="#491b52" stroke="#491b52"></path><path d="M570 470L743 482L577 324Z" fill="#511e56" stroke="#511e56"></path><path d="M181 0L0 137L157 174Z" fill="#3b1549" stroke="#3b1549"></path><path d="M157 174L0 284L178 324Z" fill="#541f59" stroke="#541f59"></path><path d="M0 137L0 284L157 174Z" fill="#451a50" stroke="#451a50"></path><path d="M760 600L743 482L570 470Z" fill="#5c225d" stroke="#5c225d"></path><path d="M692 262L900 172L683 109Z" fill="#371447" stroke="#371447"></path><path d="M0 600L176 600L180 485Z" fill="#541f59" stroke="#541f59"></path><path d="M180 485L176 600L351 600Z" fill="#541f59" stroke="#541f59"></path><path d="M181 0L0 0L0 137Z" fill="#3e174b" stroke="#3e174b"></path><path d="M0 284L0 412L178 324Z" fill="#371447" stroke="#371447"></path><path d="M900 317L900 172L692 262Z" fill="#5c225d" stroke="#5c225d"></path><path d="M743 482L900 317L692 262Z" fill="#511e56" stroke="#511e56"></path><path d="M534 600L760 600L570 470Z" fill="#3e174b" stroke="#3e174b"></path><path d="M743 482L900 458L900 317Z" fill="#3e174b" stroke="#3e174b"></path><path d="M900 172L900 0L683 109Z" fill="#451a50" stroke="#451a50"></path><path d="M900 600L900 458L743 482Z" fill="#5c225d" stroke="#5c225d"></path><path d="M0 412L0 600L180 485Z" fill="#371447" stroke="#371447"></path><path d="M760 600L900 600L743 482Z" fill="#451a50" stroke="#451a50"></path></g></svg>