<svg id="visual" viewBox="0 0 900 600" width="900" height="600" xmlns="http://www.w3.org/2000/svg" xmlns:xlink="http://www.w3.org/1999/xlink" version="1.1"><g stroke-width="1" stroke-linejoin="bevel"><path d="M372 315L372 428L503 440Z" fill="#3b1649" stroke="#3b1649"></path><path d="M503 440L568 288L372 315Z" fill="#471a51" stroke="#471a51"></path><path d="M372 428L394 600L503 440Z" fill="#4f1d56" stroke="#4f1d56"></path><path d="M372 315L213 419L372 428Z" fill="#5c225d" stroke="#5c225d"></path><path d="M372 428L205 600L394 600Z" fill="#43194e" stroke="#43194e"></path><path d="M394 600L510 600L503 440Z" fill="#5c225d" stroke="#5c225d"></path><path d="M503 440L694 460L568 288Z" fill="#58205b" stroke="#58205b"></path><path d="M568 288L386 138L372 315Z" fill="#43194e" stroke="#43194e"></path><path d="M372 315L192 262L213 419Z" fill="#3f174c" stroke="#3f174c"></path><path d="M568 288L516 120L386 138Z" fill="#531f58" stroke="#531f58"></path><path d="M510 600L694 460L503 440Z" fill="#4f1d56" stroke="#4f1d56"></path><path d="M568 288L715 177L516 120Z" fill="#4b1c53" stroke="#4b1c53"></path><path d="M386 138L192 262L372 315Z" fill="#43194e" stroke="#43194e"></path><path d="M694 460L731 340L568 288Z" fill="#5c225d" stroke="#5c225d"></path><path d="M510 600L681 600L694 460Z" fill="#531f58" stroke="#531f58"></path><path d="M694 460L900 433L731 340Z" fill="#58205b" stroke="#58205b"></path><path d="M0 451L205 600L213 419Z" fill="#4f1d56" stroke="#4f1d56"></path><path d="M213 419L205 600L372 428Z" fill="#531f58" stroke="#531f58"></path><path d="M731 340L715 177L568 288Z" fill="#371447" stroke="#371447"></path><path d="M516 120L384 0L386 138Z" fill="#471a51" stroke="#471a51"></path><path d="M386 138L145 123L192 262Z" fill="#471a51" stroke="#471a51"></path><path d="M577 0L384 0L516 120Z" fill="#43194e" stroke="#43194e"></path><path d="M207 0L145 123L386 138Z" fill="#43194e" stroke="#43194e"></path><path d="M192 262L0 294L213 419Z" fill="#4b1c53" stroke="#4b1c53"></path><path d="M715 177L577 0L516 120Z" fill="#3f174c" stroke="#3f174c"></path><path d="M384 0L207 0L386 138Z" fill="#58205b" stroke="#58205b"></path><path d="M0 129L0 294L145 123Z" fill="#3f174c" stroke="#3f174c"></path><path d="M145 123L0 294L192 262Z" fill="#471a51" stroke="#471a51"></path><path d="M0 294L0 451L213 419Z" fill="#4f1d56" stroke="#4f1d56"></path><path d="M900 112L701 0L715 177Z" fill="#3f174c" stroke="#3f174c"></path><path d="M715 177L701 0L577 0Z" fill="#4b1c53" stroke="#4b1c53"></path><path d="M900 600L900 433L694 460Z" fill="#531f58" stroke="#531f58"></path><path d="M731 340L900 292L715 177Z" fill="#371447" stroke="#371447"></path><path d="M900 433L900 292L731 340Z" fill="#371447" stroke="#371447"></path><path d="M0 451L0 600L205 600Z" fill="#58205b" stroke="#58205b"></path><path d="M0 0L0 129L145 123Z" fill="#5c225d" stroke="#5c225d"></path><path d="M681 600L900 600L694 460Z" fill="#371447" stroke="#371447"></path><path d="M900 292L900 112L715 177Z" fill="#4b1c53" stroke="#4b1c53"></path><path d="M207 0L0 0L145 123Z" fill="#371447" stroke="#371447"></path><path d="M900 112L900 0L701 0Z" fill="#5c225d" stroke="#5c225d"></path></g></svg>