<svg id="visual" viewBox="0 0 900 600" width="900" height="600" xmlns="http://www.w3.org/2000/svg" xmlns:xlink="http://www.w3.org/1999/xlink" version="1.1"><path d="M683 600L680 591.7C677 583.3 671 566.7 662 550C653 533.3 641 516.7 629 500C617 483.3 605 466.7 608 450C611 433.3 629 416.7 632 400C635 383.3 623 366.7 603.5 350C584 333.3 557 316.7 576.5 300C596 283.3 662 266.7 692 250C722 233.3 716 216.7 686 200C656 183.3 602 166.7 590 150C578 133.3 608 116.7 618.5 100C629 83.3 620 66.7 614 50C608 33.3 605 16.7 603.5 8.3L602 0L900 0L900 8.3C900 16.7 900 33.3 900 50C900 66.7 900 83.3 900 100C900 116.7 900 133.3 900 150C900 166.7 900 183.3 900 200C900 216.7 900 233.3 900 250C900 266.7 900 283.3 900 300C900 316.7 900 333.3 900 350C900 366.7 900 383.3 900 400C900 416.7 900 433.3 900 450C900 466.7 900 483.3 900 500C900 516.7 900 533.3 900 550C900 566.7 900 583.3 900 591.7L900 600Z" fill="#291235"></path><path d="M341 600L362 591.7C383 583.3 425 566.7 437 550C449 533.3 431 516.7 428 500C425 483.3 437 466.7 431 450C425 433.3 401 416.7 383 400C365 383.3 353 366.7 348.5 350C344 333.3 347 316.7 363.5 300C380 283.3 410 266.7 419 250C428 233.3 416 216.7 393.5 200C371 183.3 338 166.7 329 150C320 133.3 335 116.7 341 100C347 83.3 344 66.7 363.5 50C383 33.3 425 16.7 446 8.3L467 0L603 0L604.5 8.3C606 16.7 609 33.3 615 50C621 66.7 630 83.3 619.5 100C609 116.7 579 133.3 591 150C603 166.7 657 183.3 687 200C717 216.7 723 233.3 693 250C663 266.7 597 283.3 577.5 300C558 316.7 585 333.3 604.5 350C624 366.7 636 383.3 633 400C630 416.7 612 433.3 609 450C606 466.7 618 483.3 630 500C642 516.7 654 533.3 663 550C672 566.7 678 583.3 681 591.7L684 600Z" fill="#30133e"></path><path d="M269 600L276.5 591.7C284 583.3 299 566.7 308 550C317 533.3 320 516.7 318.5 500C317 483.3 311 466.7 300.5 450C290 433.3 275 416.7 261.5 400C248 383.3 236 366.7 228.5 350C221 333.3 218 316.7 233 300C248 283.3 281 266.7 288.5 250C296 233.3 278 216.7 255.5 200C233 183.3 206 166.7 207.5 150C209 133.3 239 116.7 248 100C257 83.3 245 66.7 248 50C251 33.3 269 16.7 278 8.3L287 0L468 0L447 8.3C426 16.7 384 33.3 364.5 50C345 66.7 348 83.3 342 100C336 116.7 321 133.3 330 150C339 166.7 372 183.3 394.5 200C417 216.7 429 233.3 420 250C411 266.7 381 283.3 364.5 300C348 316.7 345 333.3 349.5 350C354 366.7 366 383.3 384 400C402 416.7 426 433.3 432 450C438 466.7 426 483.3 429 500C432 516.7 450 533.3 438 550C426 566.7 384 583.3 363 591.7L342 600Z" fill="#371447"></path><path d="M125 600L140 591.7C155 583.3 185 566.7 200 550C215 533.3 215 516.7 216.5 500C218 483.3 221 466.7 207.5 450C194 433.3 164 416.7 153.5 400C143 383.3 152 366.7 150.5 350C149 333.3 137 316.7 147.5 300C158 283.3 191 266.7 194 250C197 233.3 170 216.7 150.5 200C131 183.3 119 166.7 129.5 150C140 133.3 173 116.7 176 100C179 83.3 152 66.7 150.5 50C149 33.3 173 16.7 185 8.3L197 0L288 0L279 8.3C270 16.7 252 33.3 249 50C246 66.7 258 83.3 249 100C240 116.7 210 133.3 208.5 150C207 166.7 234 183.3 256.5 200C279 216.7 297 233.3 289.5 250C282 266.7 249 283.3 234 300C219 316.7 222 333.3 229.5 350C237 366.7 249 383.3 262.5 400C276 416.7 291 433.3 301.5 450C312 466.7 318 483.3 319.5 500C321 516.7 318 533.3 309 550C300 566.7 285 583.3 277.5 591.7L270 600Z" fill="#4a215d"></path><path d="M0 600L0 591.7C0 583.3 0 566.7 0 550C0 533.3 0 516.7 0 500C0 483.3 0 466.7 0 450C0 433.3 0 416.7 0 400C0 383.3 0 366.7 0 350C0 333.3 0 316.7 0 300C0 283.3 0 266.7 0 250C0 233.3 0 216.7 0 200C0 183.3 0 166.7 0 150C0 133.3 0 116.7 0 100C0 83.3 0 66.7 0 50C0 33.3 0 16.7 0 8.3L0 0L198 0L186 8.3C174 16.7 150 33.3 151.5 50C153 66.7 180 83.3 177 100C174 116.7 141 133.3 130.5 150C120 166.7 132 183.3 151.5 200C171 216.7 198 233.3 195 250C192 266.7 159 283.3 148.5 300C138 316.7 150 333.3 151.5 350C153 366.7 144 383.3 154.5 400C165 416.7 195 433.3 208.5 450C222 466.7 219 483.3 217.5 500C216 516.7 216 533.3 201 550C186 566.7 156 583.3 141 591.7L126 600Z" fill="#5e2f73"></path></svg>