<svg id="visual" viewBox="0 0 900 600" width="900" height="600" xmlns="http://www.w3.org/2000/svg" xmlns:xlink="http://www.w3.org/1999/xlink" version="1.1"><path d="M0 97L100 67L200 43L300 43L400 55L500 85L600 91L700 55L800 67L900 55L900 0L800 0L700 0L600 0L500 0L400 0L300 0L200 0L100 0L0 0Z" fill="#ce477e"></path><path d="M0 181L100 181L200 157L300 121L400 157L500 169L600 145L700 139L800 163L900 139L900 53L800 65L700 53L600 89L500 83L400 53L300 41L200 41L100 65L0 95Z" fill="#a73875"></path><path d="M0 391L100 379L200 391L300 379L400 325L500 283L600 259L700 289L800 391L900 283L900 137L800 161L700 137L600 143L500 167L400 155L300 119L200 155L100 179L0 179Z" fill="#802b69"></path><path d="M0 475L100 463L200 529L300 517L400 517L500 499L600 457L700 505L800 511L900 499L900 281L800 389L700 287L600 257L500 281L400 323L300 377L200 389L100 377L0 389Z" fill="#5a1f59"></path><path d="M0 601L100 601L200 601L300 601L400 601L500 601L600 601L700 601L800 601L900 601L900 497L800 509L700 503L600 455L500 497L400 515L300 515L200 527L100 461L0 473Z" fill="#371447"></path></svg>