<svg id="visual" viewBox="0 0 900 600" width="900" height="600" xmlns="http://www.w3.org/2000/svg" xmlns:xlink="http://www.w3.org/1999/xlink" version="1.1"><rect x="0" y="0" width="900" height="600" fill="#371447"></rect><path d="M0 503L11.5 505.3C23 507.7 46 512.3 69 515.5C92 518.7 115 520.3 138.2 513.2C161.3 506 184.7 490 207.8 484.8C231 479.7 254 485.3 277 494.2C300 503 323 515 346 518.3C369 521.7 392 516.3 415.2 520.5C438.3 524.7 461.7 538.3 484.8 540.5C508 542.7 531 533.3 554 519.5C577 505.7 600 487.3 623 491.2C646 495 669 521 692.2 521.7C715.3 522.3 738.7 497.7 761.8 492.8C785 488 808 503 831 507.5C854 512 877 506 888.5 503L900 500L900 601L888.5 601C877 601 854 601 831 601C808 601 785 601 761.8 601C738.7 601 715.3 601 692.2 601C669 601 646 601 623 601C600 601 577 601 554 601C531 601 508 601 484.8 601C461.7 601 438.3 601 415.2 601C392 601 369 601 346 601C323 601 300 601 277 601C254 601 231 601 207.8 601C184.7 601 161.3 601 138.2 601C115 601 92 601 69 601C46 601 23 601 11.5 601L0 601Z" fill="#ce477e" stroke-linecap="round" stroke-linejoin="miter"></path></svg>